<?xml version="1.0" encoding="UTF-8" standalone="no"?>
<!-- Created with Inkscape (http://www.inkscape.org/) -->

<svg
   width="1024"
   height="1024"
   viewBox="0 0 270.93333 270.93333"
   version="1.1"
   id="svg1"
   xml:space="preserve"
   inkscape:version="1.4 (e7c3feb1, 2024-10-09)"
   sodipodi:docname="drawing_edited.svg"
   xmlns:inkscape="http://www.inkscape.org/namespaces/inkscape"
   xmlns:sodipodi="http://sodipodi.sourceforge.net/DTD/sodipodi-0.dtd"
   xmlns="http://www.w3.org/2000/svg"
   xmlns:svg="http://www.w3.org/2000/svg"><sodipodi:namedview
     id="namedview1"
     pagecolor="#ffffff"
     bordercolor="#000000"
     borderopacity="0.25"
     inkscape:showpageshadow="false"
     inkscape:pageopacity="0.0"
     inkscape:pagecheckerboard="0"
     inkscape:deskcolor="#d1d1d1"
     inkscape:document-units="mm"
     showborder="false"
     borderlayer="false"
     inkscape:antialias-rendering="false"
     inkscape:zoom="0.89160156"
     inkscape:cx="373.48521"
     inkscape:cy="639.8598"
     inkscape:window-width="2096"
     inkscape:window-height="1090"
     inkscape:window-x="0"
     inkscape:window-y="30"
     inkscape:window-maximized="0"
     inkscape:current-layer="layer1" /><defs
     id="defs1" /><g
     inkscape:label="Layer 1"
     inkscape:groupmode="layer"
     id="layer1"><path
       style="fill:#0000ff;fill-opacity:1;stroke:#000000;stroke-width:1;stroke-linecap:round;stroke-linejoin:round;stroke-dasharray:none;stroke-opacity:1;paint-order:stroke fill markers"
       d="m 141.81667,88.90001 c -2.42285,0.881729 -4.51745,2.227141 -7.14375,2.569271 -6.52306,0.849754 -12.94834,-1.849257 -15.97686,5.897395 -0.46578,1.191416 -0.78598,2.438078 -0.95647,3.704164 l 11.1125,0.26459 c -1.22798,3.88319 -0.87788,8.01314 -4.7625,10.51801 -2.13211,1.37482 -4.66624,1.65266 -7.14375,1.65282 -10.83626,7.1e-4 -19.265125,-9.64919 -14.4694,-20.372917 4.78446,-10.698539 16.19524,-10.054166 26.11107,-10.054166 3.45859,0 7.4426,0.595457 10.58333,-1.150608 3.66866,-2.03954 5.27332,-6.139532 6.35,-9.961892 -10.08031,0 -20.6781,-1.344233 -30.69167,0.07554 -5.23492,0.742235 -10.56956,2.815832 -14.81666,5.982321 -3.482564,2.596483 -6.625089,5.867245 -8.523834,9.817133 -4.725228,9.829729 -3.044969,22.647309 5.613416,29.775209 5.160628,4.24842 11.449288,6.0479 17.991668,6.49638 5.84497,0.40065 13.20555,0.44457 17.7032,-4.01713 3.40833,-3.38109 4.61677,-8.39544 5.52726,-12.93987 1.16919,-5.83567 3.36916,-12.315517 3.49245,-18.256255 m -5.02708,34.395825 c 1.97126,0 3.90254,0.0764 5.82083,-0.462 5.49817,-1.54321 7.3268,-6.90026 8.34785,-11.97341 0.44188,-2.19551 0.75066,-4.41635 1.17715,-6.61459 0.14752,-0.76038 0.16262,-1.8998 0.87766,-2.3739 1.40328,-0.93042 4.8831,-0.27193 6.53068,-0.27193 6.92485,0 13.29203,0.53566 16.86759,-6.614579 0.75502,-1.509872 1.50414,-3.06551 1.65324,-4.7625 -7.40877,2.857949 -15.99659,1.852083 -23.8125,1.852083 0.0934,-2.174463 0.2957,-6.748651 1.9658,-8.330708 1.65336,-1.5662 6.23069,-0.929708 8.35295,-0.929708 7.74077,0 15.4382,1.574759 19.37175,-6.614583 0.61036,-1.270723 1.07656,-2.570692 1.26575,-3.96875 h -23.8125 c -4.15753,-0.0016 -8.32564,-0.654272 -11.90625,2.013363 -4.97869,3.709221 -5.07936,10.393599 -5.85533,15.978303 -1.17389,8.448531 -1.72725,17.122549 -3.90363,25.399989 -0.71792,2.73047 -1.99002,5.05968 -2.94104,7.67292 m -12.7,-31.220823 -0.26458,0.264584 0.26458,-0.264584 m -1.32292,0.529167 -0.26458,0.264583 0.26458,-0.264583 m -0.52916,0.264583 -0.26459,0.264584 0.26459,-0.264584 m -2.11667,2.645834 -0.26458,0.264583 0.26458,-0.264583 m 13.49375,65.087499 c -0.96279,-0.68341 -1.98553,-2.2145 -3.175,-2.41269 -1.17722,-0.19615 -2.81409,1.26844 -3.96875,1.60751 -3.59372,1.05531 -7.18894,-0.70844 -8.90927,-3.95732 -2.66784,-5.03826 -0.50347,-13.42628 5.73427,-14.46593 2.63115,-0.43852 4.12145,1.68378 6.35,1.72591 1.44071,0.0272 4.16433,-2.19699 3.08579,-3.66108 -3.78357,-5.13609 -13.22944,-3.47243 -17.37309,0.0765 -5.27965,4.52198 -6.39957,13.19234 -3.23216,19.23497 3.47314,6.62587 17.56513,10.19516 21.48821,1.85213 M 27.252096,136.78959 v 27.51667 h 6.085416 v -9.78959 c 3.638954,0 7.820514,0.59275 11.1125,-1.29126 4.80552,-2.75022 5.586864,-10.9586 1.054453,-14.38162 -4.677823,-3.53282 -12.740367,-2.0542 -18.252369,-2.0542 m 38.89477,0.15148 c -3.999756,1.16322 -1.312755,6.31269 2.379211,5.29003 3.934158,-1.08974 1.379841,-6.38325 -2.379211,-5.29003 m 69.055224,-0.15148 v 27.51667 h 5.55625 c 0,-3.76282 -0.98645,-9.19137 0.52773,-12.69981 1.04759,-2.42731 4.30397,-3.48569 6.29488,-1.52828 2.84899,2.80104 1.37947,10.52993 1.37947,14.22809 h 5.55625 c -0.5255,-6.34794 2.43829,-19.39898 -7.14375,-19.83334 -0.96515,-0.0437 -1.96995,-0.0512 -2.91041,0.19088 -1.53642,0.39557 -2.67342,1.32683 -3.96875,2.17996 l 0.26458,-10.05417 h -5.55625 m 59.26666,0 v 27.51667 h 5.55625 c 0,-2.70213 -0.84135,-6.43378 1.5875,-8.20209 0.99631,2.00054 3.77206,7.17715 5.86676,8.04244 1.61906,0.66882 4.29856,0.15965 6.03949,0.15965 l -5.93231,-8.46667 -1.68977,-3.175 7.09292,-7.9375 -6.32633,0.15965 -6.90284,6.71952 -0.0971,-10.84792 -0.0993,-3.69682 -5.09527,-0.27193 m -152.664571,6.08542 c 0.321484,0.68888 0.830003,1.36296 0.929407,2.12593 0.718404,5.51402 -5.736478,5.01782 -9.396074,5.01782 v -8.73125 c 3.856845,0.45089 6.428555,-1.22774 8.689643,2.06854 m 13.799937,3.75229 h -0.264584 l 0.264584,-2.38125 h -5.55625 v 19.57917 h 5.55625 c 0,-5.39845 -2.180822,-16.66494 6.349999,-15.08125 0.02377,-1.15155 0.769454,-3.35736 -0.0074,-4.33827 -1.589648,-2.00734 -5.560453,0.74591 -6.342648,2.2216 m 24.606248,-2.52212 c -11.43085,2.14181 -9.691817,21.03588 2.116667,20.74428 1.36643,-0.0337 2.983506,-0.34318 4.233333,-0.8997 1.590536,-0.70826 4.195698,-2.57333 2.364512,-4.27704 -1.739994,-1.61886 -2.903731,-0.0105 -4.745762,0.4665 -2.28862,0.59261 -4.603086,-0.8707 -5.577485,-2.92859 -1.518981,-3.20801 -0.08311,-8.48769 3.989985,-8.70247 2.427299,-0.12796 3.835748,2.45476 6.068678,0.41322 1.496138,-1.36791 0.287176,-2.64235 -1.042612,-3.55779 -2.060113,-1.4182 -4.983005,-1.71266 -7.407316,-1.25841 m 15.875,11.25337 h 12.435419 c 0,-3.27782 0.18452,-6.76726 -2.39268,-9.23264 -5.65445,-5.40915 -14.407952,-0.50648 -15.482822,6.32222 -0.986334,6.26622 2.626293,11.84311 9.143232,12.38765 2.01729,0.16856 8.74961,-1.17002 8.23434,-4.17617 -0.59594,-3.47685 -4.42579,-0.52616 -6.11665,-0.32317 -3.395786,0.40765 -5.229629,-1.93974 -5.820839,-4.97789 m 77.522919,5.29167 c -0.72754,-0.55378 -1.6895,-1.75561 -2.64584,-1.80881 -1.10096,-0.0612 -2.33719,1.15155 -3.43958,1.40418 -3.28822,0.75354 -5.82841,-1.74466 -6.08542,-4.88704 h 11.90625 c 0,-3.19157 0.20986,-6.68658 -2.20364,-9.1808 -5.53361,-5.71869 -14.21662,-0.46826 -15.17944,6.27038 -0.48832,3.41777 0.22331,7.51479 2.87693,9.93045 3.97141,3.61527 12.10838,3.3896 14.77074,-1.72836 m 9.26041,-16.54586 c -11.44494,2.0635 -10.05425,19.76762 1.32292,20.73326 1.45965,0.12388 3.14809,-0.22029 4.49791,-0.77272 1.35086,-0.55288 4.71314,-2.36862 3.12417,-4.09492 -2.90824,-3.15961 -7.83922,3.23593 -10.64662,-2.49476 -1.56778,-3.20029 -0.38501,-8.73077 3.81829,-8.96725 2.14005,-0.12041 3.92597,2.234 5.81573,0.67391 1.77922,-1.46883 0.81826,-2.80584 -0.78865,-3.93037 -1.93428,-1.35363 -4.86965,-1.55717 -7.14375,-1.14715 m 47.88958,16.54586 -2.64583,-2.11667 h -0.26458 c -3.97814,3.03281 -8.46328,1.95521 -9.525,-3.175 h 12.17083 c 0,-3.29767 0.26098,-6.62305 -2.20282,-9.21142 -3.10866,-3.26582 -9.49553,-2.7926 -12.56505,0.26458 -1.88941,1.88182 -2.66414,4.50795 -2.9143,7.09476 -0.33417,3.45553 0.84767,7.23061 3.65946,9.38413 4.04273,3.09627 11.76784,2.60286 14.28729,-2.24038 m 7.14375,-14.02292 0.26459,-2.38125 h -5.29167 v 19.57917 h 5.29167 c 0,-5.78202 -2.18495,-16.1599 6.34999,-15.08125 0.0904,-1.14541 0.7819,-3.34179 -0.007,-4.33827 -1.68549,-2.1281 -5.50406,1.12157 -6.60724,2.2216 M 64.293761,144.72709 v 19.57917 h 5.820833 v -19.57917 h -5.820833 m 39.158329,7.40833 h -6.879164 c 0.778529,-4.36477 6.205834,-4.47217 6.879164,0 m 65.0875,0 h -6.87917 c 1.27757,-3.91836 6.1488,-4.85115 6.87917,0 m 57.15,0 h -6.87917 c 0.66977,-4.44866 6.2074,-4.4619 6.87917,0 m -174.889578,11.64167 -0.264584,0.26458 0.264584,-0.26458 m 16.139582,16.13958 c 1.135162,2.67434 4.066556,4.73179 6.13421,6.70053 3.947183,3.75834 7.734565,7.7036 11.592872,11.55572 1.434837,1.43254 4.167947,5.11358 6.35,5.17489 1.309497,0.0368 2.835122,-1.10308 3.96875,-1.66997 2.822825,-1.4116 5.624834,-2.85541 8.466664,-4.23028 8.80361,-4.25914 18.03257,-7.51929 27.25208,-10.73237 25.74144,-8.97109 53.74783,-13.86731 80.9625,-13.94227 -0.66283,-1.99711 -6.76397,-1.81755 -8.63945,-1.82356 -8.83723,-0.0284 -17.99639,-0.72887 -26.81472,0.31156 -18.86617,2.22599 -37.242,5.39175 -55.56249,10.62089 -6.4069,1.8287 -12.61248,4.43926 -18.93197,6.54576 -2.279624,0.75987 -5.667805,2.26893 -8.055531,2.19447 -2.280828,-0.0711 -5.312062,-2.05443 -7.408333,-2.95819 -5.979407,-2.57794 -12.897177,-6.64292 -19.314582,-7.74723 m 26.458332,21.96047 -0.264583,0.26458 z"
       id="path1"
       sodipodi:nodetypes="cssccssssscssssssscccsssssccsssccsssccccccccccccccsssssscscccccssccsccccsscccccccccccsccccccccccsccccccccccccccsssscsscccsssssccssccsssccsssssssccccccsssscccccccccccccccccccccccccccsssssscccsssccccc" /></g></svg>
