<?xml version="1.0" encoding="UTF-8"?>
<!-- Created with Inkscape (http://www.inkscape.org/) -->
<svg width="1024" height="1024" version="1.1" viewBox="0 0 270.93 270.93" xml:space="preserve" xmlns="http://www.w3.org/2000/svg"><path d="m147.54 112.81c-6.1416 2.2351-11.451 5.6455-18.108 6.5127-16.535 2.154-32.822-4.6876-40.499 14.949-1.1807 3.0201-1.9923 6.1802-2.4245 9.3895l28.169 0.6707c-3.1128 9.8433-2.2253 20.312-12.072 26.662-5.4046 3.485-11.828 4.1892-18.108 4.1896-27.468 1e-3 -48.834-24.459-36.678-51.642 12.128-27.119 41.053-25.486 66.188-25.486 8.767 0 18.866 1.5094 26.827-2.9166 9.2995-5.1699 13.367-15.563 16.096-25.252-25.552 0-52.416-3.4074-77.799 0.19148-13.27 1.8815-26.792 7.1377-37.558 15.164-8.8278 6.5817-16.794 14.873-21.607 24.885-11.978 24.917-7.7186 57.408 14.229 75.476 13.081 10.769 29.022 15.331 45.606 16.467 14.816 1.0156 33.474 1.1269 44.875-10.183 8.6396-8.5706 11.703-21.281 14.011-32.801 2.9637-14.793 8.5403-31.218 8.8529-46.277m-12.743 87.189c4.9969 0 9.8924 0.19367 14.755-1.1711 13.937-3.9118 18.572-17.491 21.161-30.351 1.1201-5.5653 1.9028-11.195 2.9839-16.767 0.37393-1.9274 0.41221-4.8157 2.2247-6.0175 3.5571-2.3585 12.378-0.6893 16.554-0.6893 17.554 0 33.693 1.3578 42.757-16.767 1.9139-3.8273 3.8128-7.7706 4.1907-12.072-18.78 7.2445-40.549 4.6948-60.361 4.6948 0.23676-5.512 0.74956-17.107 4.983-21.117 4.191-3.9701 15.794-2.3567 21.174-2.3567 19.622 0 39.134 3.9918 49.105-16.767 1.5472-3.2211 2.7289-6.5163 3.2085-10.06h-60.361c-10.539-0.0041-21.104-1.6585-30.181 5.1036-12.62 9.4023-12.875 26.346-14.842 40.503-2.9757 21.416-4.3784 43.403-9.8952 64.385-1.8198 6.9214-5.0444 12.826-7.4551 19.45m-32.193-79.14-0.67067 0.67069 0.67067-0.67069m-3.3534 1.3414-0.67067 0.67068 0.67067-0.67068m-1.3413 0.67068-0.6707 0.67069 0.6707-0.67069m-5.3655 6.7068-0.67067 0.67067 0.67067-0.67067" fill="#00f" stroke="#000" stroke-linecap="round" stroke-linejoin="round" stroke-width="2.5349" style="paint-order:stroke fill markers"/></svg>
